<svg xmlns="http://www.w3.org/2000/svg" xmlns:xlink="http://www.w3.org/1999/xlink" viewBox="0 0 1366 768"><path d="M785.1 488.93l12.96 25.02-14.17 50.07-112.6 54.55 10.38-36.6-17.75-34.27 121.17-58.77m6.2-18.66l-146.53 71.07 21.84 42.16-11.15 39.33c-1.96 6.96 3.5 13.15 9.9 13.15 1.5 0 3.03-.34 4.55-1.07l125.8-60.95 17.4-61.52-21.84-42.17z" fill="#333"/><path d="M622.93 499.18l146.53-71.06 21.84 42.15-146.53 71.07z" fill="#009dd6"/><defs><path id="A" d="M679.43 589.92l-11.6 41.74h55.05l177.45-89.12V473.4z"/></defs><clipPath id="B"><use xlink:href="#A"/></clipPath><g clip-path="url(#B)"><path d="M759.9 574.86v.01c-.06.3-.26.58-.56.77-8.98 5.6-13.93 5.92-25.14 10.03-4.14 1.46-10.36 5.4-13.15 6.75-12.33 5.97-16.16 3.52-23.23 8.82-4 3-14.3 9.12-19.15 10.3-.9.22-1.64.3-2.28.3l.01.01c.16 2-.2 3.8.52 5.63.35.88 1.03 1.85.55 2.66-.12.2-.32.3-.5.43 3.4-1.7 6.7-3.63 9.8-5.8 2.96-2.05 6.4-3.3 10-3.47.45-.02.9-.1 1.32-.26.9-.35 1.64-1.05 2.4-1.65 4.37-3.42 10.6-3.72 14.92-7.22 1.25-1.02 2.3-2.28 3.65-3.17 3.2-2.14 7.48-1.82 11.02-3.35 1.74-.75 3.26-1.92 4.87-2.93 3.2-2 6.77-3.36 10.3-4.7 3.1-1.17 3.35-1.88 6.44-3.05.54-.2 3.38-.9 4.25-1.4 2.14-1.25 4.43-2.78 4.4-3.3-.13-1.8-.53-3.6-.42-5.42z" fill="#ccc"/><g fill="#f6f6f6"><path d="M665.24 606.32c-.02.05-.02.1-.04.15.01-.05.04-.1.06-.15h-.02zm11.68 11.16c-.73-1.8-.36-3.62-.52-5.63v-.01c-4.22-.02-3.5-4.36-10.08-4.5-.8-.02-1.18-.32-1.1-.8-.6 1.68-.42 3.85-.03 5.57.4 1.8 1 3.57.96 5.4-.01.9-.18 1.8-.06 2.7.1.9.6 1.83 1.44 2.15.3-1.22.88-2.68 2.13-2.8 1.08-.1 1.9.87 2.87 1.4 1.3.7 2.93.53 4.23-.17.1-.05.15-.14.24-.2.2-.13.4-.24.5-.43.46-.8-.22-1.78-.57-2.66z"/></g><path d="M666.3 607.33c6.57.15 5.87 4.5 10.08 4.5.63 0 1.38-.1 2.28-.3 4.84-1.2 15.16-7.32 19.15-10.3 7.07-5.3 10.9-2.85 23.23-8.82 2.8-1.35 9-5.3 13.15-6.75 11.2-4.1 16.15-4.4 25.14-10.03a1.24 1.24 0 0 0 .56-.77.9.9 0 0 0-.32-.91c-4.15-3.44-10.43-4.37-14.74-2.2s-4.3 2.17-9.88 3.24c-3.83.74-11.12.95-13.38 3.74-.86 1.07-5.7 4.1-7.07 4.22-5.33.46-10.95 4.17-15.7 6.63-4.08 2.12-7.75 1.24-11.44 3.98-2.85 2.12-5.34 6.12-8.83 6.77-8.4 1.57-12.72 4.45-13.27 5.98-.02.05-.05.1-.06.15 0 .02-.01.04-.01.06-.08.5.3.8 1.1.82z" fill="#fff"/></g><path d="M601.1 457.03l21.83 42.15 146.53-71.06-21.83-42.16zm43.67 84.3l21.84 42.15 146.53-71.06-21.84-42.16zm62.76 62.68l40.93 20.52L895 553.48l-40.93-20.53z" fill="#91ddf8"/><path d="M748.46 624.54L895 553.48 935.9 574l-146.53 71.06z" fill="#009dd6"/><path d="M789.38 645.06l40.92 20.53 146.54-71.07L935.9 574z" fill="#91ddf8"/><path d="M967.48 614.72l9.5 37c.17.66-.15 1.36-.76 1.67L858.2 710.54a1.37 1.37 0 0 1-.63.16c-.4 0-1.2-.23-1.42-1.1l-9.33-36.35 120.66-58.53m-109.9 95.98c-.4 0-1.2-.23-1.42-1.1l-9.33-36.35m130.02-78.73L830.3 665.6l12.2 47.5c1.84 7.15 8.25 11.7 15.07 11.7a15.48 15.48 0 0 0 6.81-1.58l118-57.14a15.56 15.56 0 0 0 8.24-17.83l-13.8-53.72zm-280.7-272.98c1.08 0 2.5.52 3.27 2l29.05 56.07-121.17 58.77-29-55.98c-.6-1.13-.45-2.17-.23-2.84s.72-1.58 1.86-2.14l114.62-55.5c.5-.25 1.05-.38 1.6-.38m0-14.1a17.74 17.74 0 0 0-7.78 1.8l-114.6 55.48c-8.96 4.38-12.56 15.27-7.98 24.12L601.1 457l146.53-71.07-35.7-68.9c-3.14-6.08-9.34-9.6-15.77-9.6z" fill="#333"/><path d="M666.6 583.5l146.53-71.06 40.92 20.52-146.53 71.07zm-87.34-168.63L725.8 343.8l21.84 42.15-146.53 71.07z" fill="#009dd6"/><defs><path id="C" d="M846.8 673.24l9.33 36.35c.22.87 1.03 1.1 1.42 1.1l3.76 6.23 122.25-54.2-1.23-23.6-44.6.83"/></defs><clipPath id="D"><use xlink:href="#C"/></clipPath><g clip-path="url(#D)"><path d="M867.23 712.4c4.87-2.38 9.55-5.14 14-8.23 4-2.77 8.63-4.47 13.48-4.68.6-.03 1.2-.13 1.78-.35 1.23-.47 2.2-1.42 3.25-2.23 5.9-4.62 14.32-5.02 20.13-9.74 1.7-1.37 3.1-3.08 4.92-4.28 4.34-2.9 10.1-2.46 14.87-4.52 2.35-1 4.4-2.6 6.57-3.96 4.32-2.7 9.14-4.54 13.9-6.35 4.17-1.58 4.52-2.53 8.7-4.1.73-.28 4.56-1.2 5.74-1.9 2.9-1.7 5.97-3.75 5.92-4.45-.2-2.4-.73-4.83-.58-7.3l-61.2 21.55-53.5 25.43 2 15.1z" fill="#ccc"/><path d="M870.3 699.8c6.53-1.6 20.46-9.88 25.84-13.92 9.54-7.16 14.7-3.85 31.34-11.9 3.77-1.82 12.15-7.14 17.75-9.1 15.12-5.54 21.8-5.96 33.92-13.53.86-.54 1.1-1.62.33-2.27-5.6-4.64-14.08-5.9-19.9-2.97s-5.8 2.92-13.33 4.38c-5.16 1-15 1.28-18.06 5.05-1.17 1.44-7.7 5.53-9.55 5.7-7.2.62-14.77 5.63-21.18 8.95-5.5 2.86-10.45 1.67-15.44 5.37-3.85 2.85-7.2 8.26-11.92 9.14-15.73 2.94-20.93 9.33-16.5 9.43 10.2.24 7.4 7.97 16.7 5.68z" fill="#fff"/></g><path d="M852.2 692.77c-.92 2.3-.66 5.38-.1 7.8.55 2.4 1.33 4.82 1.3 7.3-.02 1.22-.24 2.45-.08 3.66s.8 2.47 1.94 2.9c.4-1.65 1.18-3.62 2.87-3.8 1.46-.15 2.58 1.17 3.87 1.87 1.74.95 3.96.72 5.7-.22.4-.2.78-.47 1-.85.65-1.1-.26-2.4-.74-3.6-.98-2.45-.5-4.88-.7-7.6l-6.82-7.57-8.2.1z" clip-path="url(#D)" fill="#f6f6f6"/><path d="M830.3 665.6l146.54-71.07 8.46 33-146.53 71.07z" fill="#009dd6"/></svg>