<svg xmlns="http://www.w3.org/2000/svg" viewBox="0 0 1366 768"><path d="M633.3 434.2c-20.2 1.6-40.9 3.4-59.5 11.5s-35.2 24.1-38.7 44.4c-1.3 7.5-.8 15.4-3.2 22.7-6.9 20.6-32.3 26.4-53.6 29l-135.7 16.5c-5 .6-9.8 2.4-13.7 5.6-9.4 7.7-3.2 13.7-3.1 20.4.1 10.8-13.8 14.8-24.5 16-26.8 3-53.2 9.7-78.3 19.9-2.7 1.1-5.2 2.8-6.9 5.3-7.7 11.3 10.2 23.1 23.9 25.3a1647.95 1647.95 0 0 0 239.9 20.6c50.5.6 101.8-1 150.9 10.9 6.7 1.6 14 4 17.5 9.9 3.8 6.3 2 14.4 3 21.7 3.4 25.1 35.1 32.8 60 33.9 151.7 7 303.4-6.7 454.5-21.6 25.5-2.5 51.6-5.2 74.9-16.1s43.6-31.8 46.9-57.6c3.3-25.5-10.9-51-31.2-66.5s-45.6-22.5-70.7-26.3c-57.6-8.7-117.3-2.5-173.4-19.2-3.5-1-6.8-2.9-9.2-5.7-12.7-14.3 7.7-31.4 11.5-48.8 3-13.8-5.8-28.1-17.7-35.6-41-26.1-120.5-21.4-169.1-27.4-62.9-7.7-131.5 6.1-194.5 11.2z" fill="#fff"/><path d="M760.9 429.8c-12.4.7-27.4 3.4-31.8 15.2 48.5 10.3 98.7 9.4 147.8 16 4.1.5 8.8 1.6 10.5 5.4 3.3 7-6.7 12.5-14.2 14.2s-16.8 9-12.1 15.1c2.1 2.7 6 3 9.4 3.1 29.6.5 59.3-2.3 88.4-8.2 11.7-2.4 26.1-8.9 25.3-20.9-.7-10.9-13.6-16.1-24.3-17.7-2.8-.4-5.9-1-7.4-3.4-1.3-2.1-.9-4.8-1.6-7.1-1.6-5.2-8-6.9-13.4-7.7-59.2-8.9-116.8-3.9-176.6-4zm106.6 183.3c1.7 4.7-5 7.6-9.8 8-45.5 3.8-103.9 13-152.8 7.4-9.6-1.1-11.4-14.5-2.5-18.2 15.3-6.2 32.2-11.3 45.3-16.9 12-5.1 8.1-6.7 19.6-2.4 7.3 2.8 12.3 11.5 22.4 14.1 9 2.5 75.5 1.6 77.8 8zm-469.3-38.4c.2-.1.3-.2.5-.2 7.5-2.2 15.1-4.3 22.9-4 9 .3 17.5 3.9 26.2 6.2 37.2 10 76.6-2.5 114.9.8 2.4.2 3.9 2.8 2.8 4.9-3.6 7.2-14.6 10-23.4 10.7l-123.7 10.3c-3.5.3-4.4 5.1-1.2 6.6 2.2 1.1 2.7 4.1.9 5.7-3.1 2.7-7.5 4.2-11.5 5.4-48 14.4-98.9 19-148.7 13.6-3.4-.4-4.3-4.9-1.3-6.5 18.9-10.5 37.8-21.6 57.9-29.1 26.6-9.9 58.5-11.7 83.7-24.4zm826.7 61.4c-6.3-17.5-22.2-30.2-39.4-36.4s-36.1-6.9-54.4-6.2c-27.7 1-55.5 4.9-81.6 14.3-13.9 5-29.8 17.3-24.8 31.4 4.8 13.4 26.1 17.2 26.6 31.4.2 6.9-5.2 12.8-11.5 15.5s-13.2 2.9-20 3.6c-18.4 1.9-36.2 7.6-52.4 16.6-8.4 4.7-17.3 15.4-11 22.8 3 3.5 8.1 4 12.7 4.3a3049.4 3049.4 0 0 0 238.1 3.6c11.2-.3 23.8-1.2 31.3-9.7 7.7-8.8 6.8-22 5.5-33.6" fill="#f6f6f6"/></svg>