<svg xmlns="http://www.w3.org/2000/svg" viewBox="0 0 1366 768"><path d="M953.6 375.16c0 34.82-2.64 64.24-5.95 65.48-3.3 1.23-6.04-26.96-6.04-62.7a158.14 158.14 0 0 0 11.99-2.77z" fill="#fff"/><path d="M941.6 377.93c0 35.63-2.72 65.38-6.12 66.2s-6.18-28.1-6.18-64.35a167.19 167.19 0 0 0 12.3-1.85z" fill="#ffba8e"/><path d="M929.3 379.77c0 36.18-2.77 66.04-6.22 66.45s-6.25-29.04-6.25-65.53c4.18-.15 8.34-.45 12.47-.92z" fill="#fff"/><path d="M916.84 380.7c0 36.46-2.8 66.22-6.27 66.23-3.46 0-6.27-29.76-6.27-66.23a174.78 174.78 0 0 0 12.54 0z" fill="#ffba8e"/><path d="M904.3 380.7c0 36.5-2.8 65.93-6.25 65.53-3.45-.42-6.22-30.27-6.22-66.45a172.55 172.55 0 0 0 12.47.92z" fill="#fff"/><path d="M891.84 379.77c0 36.25-2.78 65.17-6.18 64.35-3.4-.83-6.12-30.57-6.12-66.2 4.06.78 8.17 1.4 12.3 1.85z" fill="#ffba8e"/><path d="M879.55 377.93c0 35.75-2.73 63.93-6.04 62.7-3.32-1.24-5.95-30.66-5.95-65.48 3.93 1.07 7.93 2 12 2.77z" fill="#fff"/><path d="M867.55 375.16L910.58 57.1l-31.03 320.84c-4.06-.77-8.06-1.7-12-2.77z" fill="#ffba8e"/><path d="M910.58 57.1l-31.03 320.84c4.05.77 8.16 1.4 12.3 1.85l18.74-322.7z" fill="#fb6330"/><path d="M910.58 57.1l-18.74 322.68a167.04 167.04 0 0 0 12.47.92l6.27-323.6z" fill="#ffba8e"/><path d="M910.58 57.1l-6.27 323.6a174.5 174.5 0 0 0 12.53 0l-6.26-323.6z" fill="#fb6330"/><path d="M910.58 57.1l6.27 323.6a167.04 167.04 0 0 0 12.47-.92L910.58 57.1z" fill="#ffba8e"/><path d="M910.58 57.1l18.74 322.68c4.13-.46 8.24-1.08 12.3-1.85L910.58 57.1z" fill="#fb6330"/><path d="M910.58 57.1l31.03 320.84c4.05-.77 8.06-1.7 12-2.77L910.58 57.1z" fill="#ffba8e"/></svg>