<svg xmlns="http://www.w3.org/2000/svg" xmlns:xlink="http://www.w3.org/1999/xlink" viewBox="0 0 1366 768"><use xlink:href="#B" fill="#fff"/><use xlink:href="#B" x="-64.55" fill="#ffba8e"/><use xlink:href="#B" x="-129.12" fill="#fff"/><use xlink:href="#B" x="-193.69" fill="#ffba8e"/><path d="M882.9,224.84c0,17.83-14.45,32.28-32.28,32.28s-32.28-14.45-32.28-32.28H882.9z" fill="#fff"/><use xlink:href="#B" x="-322.81" fill="#ffba8e"/><use xlink:href="#B" x="-387.37" fill="#fff"/><path d="M689.22 224.84L915.18 66.77l-161.4 158.07z" fill="#ffba8e"/><path d="M915.18 66.77l-161.4 158.07h64.56z" fill="#fb6330"/><path d="M915.18 66.77l-96.84 158.07h64.56z" fill="#ffba8e"/><path d="M915.18 66.77L882.9 224.84h64.56z" fill="#fb6330"/><path d="M915.18 66.77l32.28 158.07h64.57z" fill="#ffba8e"/><path d="M915.18 66.77l96.85 158.07h64.56z" fill="#fb6330"/><path d="M915.18 66.77l161.4 158.07h64.56z" fill="#ffba8e"/><defs ><path id="B" d="M1141.15 224.84c0 17.83-14.45 32.28-32.28 32.28s-32.28-14.45-32.28-32.28h64.56z"/></defs></svg>